<svg width="1440" height="779" viewBox="0 0 1440 779" fill="none" xmlns="http://www.w3.org/2000/svg">
<path d="M125.5 18.5C167.5 85 205.056 218.081 298.5 313.5C383.993 400.801 446.046 442.988 561.5 483C608.795 499.39 650.768 505.114 691.5 505C691.5 505 684.779 446.552 691.5 447C699 447.5 708.5 493 708.5 493H723C723 493 743.5 445 750.5 447C756.914 448.833 735.5 502.673 735.5 502.673C815.967 495.814 893.864 474.381 994.5 483C1170.32 498.059 1439.5 561.5 1439.5 561.5V768.5C1439.5 768.5 1345.5 790.5 1293 768.5C1131.07 700.643 1040.1 658.367 869 619C622.84 562.364 461.753 661.892 223.5 578C135.46 547 97.5 522 2.11928e-06 443V18.5C2.11928e-06 18.5 99.3286 -22.9381 125.5 18.5Z" fill="#9377C5"/>
</svg>