<svg width="95" height="93" viewBox="0 0 95 93" fill="none" xmlns="http://www.w3.org/2000/svg">
<circle cx="47.5" cy="46.5" r="27.5" fill="#D9D9D9"/>
<path d="M48 0.5L42.5 13H53L48 0.5Z" fill="#D9D9D9"/>
<path d="M47.5 93L53 80.5H42.5L47.5 93Z" fill="#D9D9D9"/>
<path d="M83.8461 16.0074L71.1182 20.9571L78.5428 28.3817L83.8461 16.0074Z" fill="#D9D9D9"/>
<path d="M85.1073 76.675L78.0226 65L72 73.6011L85.1073 76.675Z" fill="#D9D9D9"/>
<path d="M9.86779 77.2655L23.2619 74.6011L17.2393 66L9.86779 77.2655Z" fill="#D9D9D9"/>
<path d="M0 46L12.5 51.5V41L0 46Z" fill="#D9D9D9"/>
<path d="M94.5 46.5L82 41V51.5L94.5 46.5Z" fill="#D9D9D9"/>
<path d="M11.0073 15.6538L15.957 28.3817L23.3816 20.9571L11.0073 15.6538Z" fill="#D9D9D9"/>
</svg>
