<svg width="342" height="89" viewBox="0 0 342 89" fill="none" xmlns="http://www.w3.org/2000/svg">
<path d="M73 0H0V20H24.25L0 88.5H24L48.25 20H73V0Z" fill="#FAF5FF"/>
<path d="M114 0V20H89.25L82.5 39.5H102.5V56H77L71.4474 71H114V88.5H65H41L72 0H114Z" fill="#FAF5FF"/>
<path d="M295.5 0V19.613H263.75L257 39.2232H277V55.8164H251.5L245.947 70.9011H288.5V88.5H239.5H216L246.5 0H295.5Z" fill="#FAF5FF"/>
<path d="M113 0V88.5H128.5C128.5 88.5 122.397 30 128.5 30C135 30 145.5 75.5 145.5 75.5H160C160 75.5 182.708 25.6078 187.5 30C193.5 35.5 171 88.5 171 88.5H195L205.5 0H181.5L167.5 30L154 60L147.5 0H113Z" fill="#FAF5FF"/>
<path fill-rule="evenodd" clip-rule="evenodd" d="M294 0.000100234L283 88.5H302.5L307.5 50.0001L317 88.5C317 88.5 334.75 88.5 336 88.5L321 43.0001C324.5 42.5001 324.276 42.473 327.5 41.0002C333.026 38.476 337 34.5002 339 28.5002C340.23 24.8093 340.893 22.3892 341 18.5002C341.118 14.2372 340.251 11.622 338 8.00018C335.134 3.38963 329.5 0.000116994 327 7.79272e-05C315 -0.000109592 294 0.000100234 294 0.000100234ZM313 13.0002C313 13.0002 321.776 10.1841 326 13.0002C327.5 14.0002 328.029 14.5498 328.5 16.0002C328.892 17.2072 329.114 18 329 19.5C328.909 20.6946 328.5 22 328.5 22C328.5 22 328 24 327 25.5C326 27 325.16 28.5103 324 29.5C318.5 36 309 35.5 309 35.5L313 13.0002Z" fill="#FAF5FF"/>
<path fill-rule="evenodd" clip-rule="evenodd" d="M195 0L184 88.5001H203.5L208 50.5L209 44.5C212.5 44.5 225.276 41.9728 228.5 40.5C234.026 37.9758 238 35.0002 240 29.0002C241.23 25.3093 241.893 22.8892 242 19.0002C242.118 14.7372 241.251 12.122 239 8.50018C236.134 3.88963 230.5 3.90664e-05 228 0C216 -0.000187519 195 0 195 0ZM214 13.5002C214 13.5002 222.776 10.6841 227 13.5002C228.5 14.5002 229.029 15.0498 229.5 16.5002C229.892 17.7072 230.114 18.5 230 20C229.909 21.1946 229.5 22.5 229.5 22.5C229.5 22.5 229 24.5 228 26C227 27.5 226.16 29.0103 225 30C219.5 36.5 210 36 210 36L214 13.5002Z" fill="#FAF5FF"/>
</svg>
